<svg xmlns="http://www.w3.org/2000/svg" viewBox="0 0 359.62 199.06"><defs><style>.cls-1{fill:#598ba3;}</style></defs><title>Computer Science Center</title><g id="Layer_2" data-name="Layer 2"><g id="Layer_1" data-name="Layer 1"><path class="cls-1" d="M6,112.44a19.82,19.82,0,0,0,14,5.32c9.86,0,14.33-10.57,3.4-13.55l-9.08-2.34C6.6,99.82,1.28,94.57,1.28,87.12,1.07,78.6,10,71.51,20,71.72a29.66,29.66,0,0,1,18.16,6l-5.6,7.95A19.29,19.29,0,0,0,20,81.44c-8.3,0-12.49,8.44-3.12,11.14l8.51,2.2c8.16,2.06,14.76,7.31,14.76,16C40.37,120,31,127.55,20,127.34A30.35,30.35,0,0,1,.36,120.46Z"/><path class="cls-1" d="M75.77,97a11.83,11.83,0,0,0-8.51-3.55,12.1,12.1,0,0,0,0,24.19,11.83,11.83,0,0,0,8.51-3.55l7,6.81a21.89,21.89,0,0,1-15.47,6.38c-12.49,0-22.49-9.29-22.49-21.78s10-21.71,22.49-21.71a21.6,21.6,0,0,1,15.47,6.38Z"/><path class="cls-1" d="M148.53,110.17h-32.7A11.77,11.77,0,0,0,127,118.33c4.61,0,9.29-2.2,11.42-5.75l7.66,5A23,23,0,0,1,127,127.34c-12.34,0-22.42-9.36-22.42-21.78S114.7,83.85,127,83.85a21.83,21.83,0,0,1,22.06,21.71A20.51,20.51,0,0,1,148.53,110.17Zm-10.22-8.73a11.83,11.83,0,0,0-22.49,0Z"/><path class="cls-1" d="M229,97a11.83,11.83,0,0,0-8.51-3.55,12.1,12.1,0,0,0,0,24.19,11.83,11.83,0,0,0,8.51-3.55l7,6.81a21.89,21.89,0,0,1-15.46,6.38C208,127.34,198,118,198,105.56s10-21.71,22.49-21.71a21.59,21.59,0,0,1,15.46,6.38Z"/><path class="cls-1" d="M282.42,110.17h-32.7a11.77,11.77,0,0,0,11.21,8.16c4.61,0,9.29-2.2,11.42-5.75l7.66,5a23,23,0,0,1-19.08,9.79c-12.34,0-22.42-9.36-22.42-21.78s10.07-21.71,22.42-21.71A21.83,21.83,0,0,1,283,105.56,20.51,20.51,0,0,1,282.42,110.17Zm-10.22-8.73a11.83,11.83,0,0,0-22.49,0Z"/><path class="cls-1" d="M164.52,126.13V102.58a9,9,0,1,1,18,0v23.55h9.93V102.23c0-10.64-8.3-18.37-18.94-18.37s-18.94,7.73-18.94,18.37v23.91Z"/><rect class="cls-1" x="88.1" y="85.06" width="9.93" height="41.07"/><circle class="cls-1" cx="93.07" cy="74.5" r="5.95"/><path class="cls-1" d="M99.73,181.89H67a11.77,11.77,0,0,0,11.21,8.16c4.61,0,9.29-2.2,11.42-5.75l7.66,5a23,23,0,0,1-19.08,9.79c-12.34,0-22.42-9.36-22.42-21.78s10.07-21.71,22.42-21.71a21.83,21.83,0,0,1,22.06,21.71A20.51,20.51,0,0,1,99.73,181.89Zm-10.22-8.73a11.83,11.83,0,0,0-22.49,0Z"/><path class="cls-1" d="M115.72,197.86V174.3a9,9,0,1,1,18,0v23.55h9.93V173.95c0-10.64-8.3-18.37-18.94-18.37s-18.94,7.73-18.94,18.37v23.91Z"/><path class="cls-1" d="M43.84,161.6a18.13,18.13,0,1,0,0,19.37l8.23,5.11a27.77,27.77,0,0,1-23.55,13C12.77,199.06,0,187,0,171.25s12.77-27.81,28.52-27.81a27.93,27.93,0,0,1,23.55,13Z"/><circle class="cls-1" cx="28.55" cy="171.29" r="8.48"/><path class="cls-1" d="M216.58,181.89h-32.7a11.77,11.77,0,0,0,11.21,8.16c4.61,0,9.29-2.2,11.42-5.75l7.66,5a23,23,0,0,1-19.08,9.79c-12.34,0-22.42-9.36-22.42-21.78s10.07-21.71,22.42-21.71a21.83,21.83,0,0,1,22.06,21.71A20.5,20.5,0,0,1,216.58,181.89Zm-10.22-8.73a11.83,11.83,0,0,0-22.49,0Z"/><path class="cls-1" d="M232.58,172.53a7.31,7.31,0,0,1,7.31-7.31h1.4v-9.64h-2.8a15.84,15.84,0,0,0-15.84,15.84v26.43h9.93Z"/><path class="cls-1" d="M169,165.86v-9.08h-7.87V144.65h-9.93v38.2a15,15,0,0,0,15,15H169v-9.65h-1.4a6.47,6.47,0,0,1-6.47-6.47V165.86Z"/><path class="cls-1" d="M55.22,22V.68L48,7.94A27.8,27.8,0,0,0,28.52,0C12.77,0,0,12.06,0,27.81S12.77,55.62,28.52,55.62a27.77,27.77,0,0,0,23.55-13l-8.23-5.11a18.11,18.11,0,1,1-2.73-22.74L33.85,22Z"/><path class="cls-1" d="M79.81,55.62c-12.41,0-22.42-9.29-22.42-21.78s10-21.71,22.42-21.71,22.49,9.29,22.49,21.71S92.3,55.62,79.81,55.62Zm0-33.84A12.1,12.1,0,1,0,91.94,33.84,12.08,12.08,0,0,0,79.81,21.78Z"/><path class="cls-1" d="M334.91,38.45h-32.7a11.77,11.77,0,0,0,11.21,8.16c4.61,0,9.29-2.2,11.42-5.75l7.66,5a23,23,0,0,1-19.08,9.79c-12.34,0-22.42-9.36-22.42-21.78s10.07-21.71,22.42-21.71a21.83,21.83,0,0,1,22.06,21.71A20.5,20.5,0,0,1,334.91,38.45ZM324.7,29.73a11.83,11.83,0,0,0-22.49,0Z"/><path class="cls-1" d="M252.08,13.34V36.89a9,9,0,1,1-18,0V13.34h-9.93V37.24c0,10.64,8.3,18.37,18.94,18.37S262,47.89,262,37.24V13.34Z"/><path class="cls-1" d="M252.08,13.34V36.89a9,9,0,1,1-18,0V13.34h-9.93V37.24c0,10.64,8.3,18.37,18.94,18.37S262,47.89,262,37.24V13.34Z"/><path class="cls-1" d="M196.56,12.13c-12.41,0-22.42,9.29-22.42,21.71v32.7h9.93V50.63a18.19,18.19,0,0,0,12.49,5c12.49,0,22.08-9.29,22.08-21.78S209,12.13,196.56,12.13ZM196.06,46a12.1,12.1,0,1,1,12.13-12.13A12.1,12.1,0,0,1,196.06,46Z"/><path class="cls-1" d="M151.14,12.13c-5.3,0-10.64,2-13.94,6.55-3.3-4.53-8.64-6.55-13.94-6.55-9.08,0-15.46,7.09-15.46,16.88v25.4h9.93V29a7.27,7.27,0,0,1,14.54,0v25.4h9.86V29a7.27,7.27,0,0,1,14.54,0v25.4h9.93V29C166.6,19.23,160.22,12.13,151.14,12.13Z"/><path class="cls-1" d="M287.34,22.42V13.34h-7.87V1.21h-9.93V39.4a15,15,0,0,0,15,15h2.79V44.77h-1.4a6.47,6.47,0,0,1-6.47-6.47V22.42Z"/><path class="cls-1" d="M350.91,29.09a7.31,7.31,0,0,1,7.31-7.31h1.4V12.14h-2.8A15.84,15.84,0,0,0,341,28V54.41h9.93Z"/></g></g></svg>