<?xml version="1.0" encoding="utf-8"?>
<!-- Generator: Adobe Illustrator 19.2.1, SVG Export Plug-In . SVG Version: 6.00 Build 0)  -->
<svg version="1.1" id="Layer_1" xmlns="http://www.w3.org/2000/svg" xmlns:xlink="http://www.w3.org/1999/xlink" x="0px" y="0px"
	 viewBox="0 0 350 100" style="enable-background:new 0 0 350 100;" xml:space="preserve">
<style type="text/css">
	.st0{fill:#404344;}
	.st1{fill:#37B34A;}
</style>
<g>
	<path class="st0" d="M113.4,64.1c0,2.2,1.8,2.9,3.5,3.6c1.3,0.5,2.3,1,2.3,2.3c0,1.5-1.3,1.9-2.5,1.9c-0.9,0-2.4-0.4-3.2-0.8
		l-0.1,1.5c1,0.4,2.4,0.6,3.4,0.6c2.1,0,4-1,4-3.4c0-2-1.6-2.8-3.1-3.5c-1.1-0.5-2.7-0.9-2.7-2.4c0-1.5,1.4-1.9,2.6-1.9
		c0.8,0,1.8,0.2,2.6,0.5l0.1-1.4c-0.8-0.2-1.8-0.4-2.7-0.3C115.4,60.7,113.3,61.6,113.4,64.1 M114.8,44.7h2.8c1.4,0,2.5,0.6,2.5,2.2
		c0,1.6-1.1,2.2-2.5,2.2h-2.8V44.7z M121.6,46.9c0-2.3-1.7-3.5-3.8-3.5h-4.4v12.2h1.4v-5.2h3C119.9,50.4,121.6,49.1,121.6,46.9
		 M191.9,50.6h3.5l0,3.6c-0.7,0.1-1.5,0.2-2.1,0.1c-3.1,0-4.2-1.9-4.2-4.9c0-2.9,1.3-4.8,4.3-4.9c1.1,0,2.4,0.2,3.3,0.5l0.1-1.3
		c-1-0.3-2.3-0.4-3.4-0.4c-3.9,0-5.9,2.2-5.9,6.1c0,4.6,2.4,6.2,5.7,6.2c1.1,0,2.4-0.1,3.6-0.3v-6.1h-4.9V50.6z M128.5,50.5
		c0-1.7-1-2.6-2.3-2.6c-1.7,0-2.5,1-2.6,2.6H128.5z M129.9,51.6h-6.4c0.1,2.2,1.3,2.9,2.9,2.8c1,0,2-0.3,2.8-0.6l0,1.3
		c-0.8,0.4-2.1,0.5-2.9,0.5c-2.3,0-4.2-1.4-4.2-4.5c0-2.5,1.3-4.5,4-4.5C129,46.7,130,48.6,129.9,51.6 M136.6,55.5
		c-0.6,0.2-1.2,0.3-1.7,0.3c-1.5,0-2.3-0.9-2.3-2.5V48h-1.5v-1.2h1.5v-2.1l1.4-0.5v2.6h2.2V48H134v5c0,1.1,0.5,1.5,1.2,1.5
		c0.4,0,0.9-0.1,1.4-0.2L136.6,55.5z M144.1,50.5c0-1.7-1-2.6-2.3-2.6c-1.7,0-2.5,1-2.6,2.6H144.1z M145.6,51.6h-6.4
		c0.1,2.2,1.3,2.9,2.9,2.8c1,0,2-0.3,2.8-0.6l0,1.3c-0.8,0.4-2.1,0.5-2.9,0.5c-2.3,0-4.2-1.4-4.2-4.5c0-2.5,1.3-4.5,4-4.5
		C144.6,46.7,145.6,48.6,145.6,51.6 M152.6,48.1c-0.2-0.1-0.6-0.2-1.1-0.2c-1.6,0-2.1,1.3-2.1,2.6v5.1h-1.4v-8.7h1.1l0.1,1.2
		c0.5-0.8,1.2-1.4,2.3-1.4c0.4,0,0.9,0.1,1.4,0.2L152.6,48.1z M172.3,55.6h-1.4v-5.7c0-1.3-0.5-2-1.7-2c-1.2,0-2.2,0.8-2.8,1.8v5.9
		h-1.4V42.7h1.4V48c0.7-0.9,1.9-1.4,3-1.4c1.5,0,2.8,0.9,2.8,3V55.6z M180.9,50.5c0-1.7-1-2.6-2.3-2.6c-1.7,0-2.5,1-2.6,2.6H180.9z
		 M182.3,51.6h-6.4c0.1,2.2,1.3,2.9,2.9,2.8c1,0,2-0.3,2.8-0.6l0,1.3c-0.8,0.4-2.1,0.5-2.9,0.5c-2.3,0-4.2-1.4-4.2-4.5
		c0-2.5,1.3-4.5,4-4.5C181.3,46.7,182.4,48.6,182.3,51.6 M211.1,50.5c0-1.7-1-2.6-2.3-2.6c-1.7,0-2.5,1-2.6,2.6H211.1z M212.5,51.6
		h-6.4c0.1,2.2,1.3,2.9,2.9,2.8c1,0,2-0.3,2.8-0.6l0,1.3c-0.8,0.4-2.1,0.5-2.9,0.5c-2.3,0-4.2-1.4-4.2-4.5c0-2.5,1.3-4.5,4-4.5
		C211.6,46.7,212.6,48.6,212.5,51.6 M219.6,51.3V52c0,1.4-0.9,2.5-2.4,2.5c-0.9,0-1.6-0.5-1.7-1.4C215.4,51.1,217.4,51.3,219.6,51.3
		 M214.7,47.1l0.1,1.3c0.7-0.3,1.8-0.6,2.8-0.5c1.1,0.1,2,0.5,2,1.9v0.4c-3.2-0.2-5.5,0.1-5.5,2.9c0,1.7,1.2,2.6,2.8,2.6
		c1.2,0,2.1-0.5,2.7-1.2l0.2,1h1.1l0-5.7c0-2.4-1.5-3.1-3.3-3.2C216.8,46.7,215.4,46.8,214.7,47.1 M163.2,55.5
		c-0.6,0.2-1.2,0.3-1.7,0.3c-1.5,0-2.3-0.9-2.3-2.5V48h-1.5v-1.2h1.5v-2.1l1.4-0.5v2.6h2.2V48h-2.2v5c0,1.1,0.5,1.5,1.2,1.5
		c0.4,0,0.9-0.1,1.4-0.2L163.2,55.5z M203.9,48.1c-0.2-0.1-0.6-0.2-1.1-0.2c-1.6,0-2.1,1.3-2.1,2.6v5.1h-1.4v-8.7h1.1l0.1,1.2
		c0.5-0.8,1.2-1.4,2.3-1.4c0.4,0,0.9,0.1,1.4,0.2L203.9,48.1z M228,55.5c-0.6,0.2-1.2,0.3-1.7,0.3c-1.5,0-2.3-0.9-2.3-2.5V48h-1.5
		v-1.2h1.5v-2.1l1.4-0.5v2.6h2.2V48h-2.2v5c0,1.1,0.5,1.5,1.2,1.5c0.4,0,0.9-0.1,1.4-0.2L228,55.5z M296.9,73.1h-1.4v-5.7
		c0-1.3-0.5-2-1.7-2c-1.2,0-2.2,0.8-2.8,1.8v5.9h-1.4v-8.7h1.2l0.1,1.2c0.7-0.9,2-1.4,3-1.4c1.5,0,2.8,0.9,2.8,3V73.1z M286.9,73.1
		h-1.4v-5.7c0-1.3-0.5-2-1.7-2c-1.2,0-2.2,0.8-2.8,1.8v5.9h-1.4V60.2h1.4v5.4c0.7-0.9,1.9-1.4,3-1.4c1.5,0,2.8,0.9,2.8,3V73.1z
		 M260.7,73c-0.6,0.2-1.2,0.2-1.7,0.2c-1.5,0-2.3-0.9-2.3-2.5v-5.2h-1.5v-1.2h1.5v-2.1l1.4-0.5v2.6h2.2v1.2h-2.2v5
		c0,1.1,0.5,1.5,1.2,1.5c0.4,0,0.9-0.1,1.4-0.2L260.7,73z M303.2,68.7c0-3.2,1.9-4.6,4.4-4.6c0.6,0,1.5,0.1,2.1,0.3l-0.1,1.3
		c-0.7-0.2-1.5-0.3-2.2-0.3c-1.6,0.1-2.8,1-2.8,3.4c0,2.3,1.2,3.3,2.8,3.4c0.6,0,1.5,0,2.2-0.3l0.1,1.3c-0.7,0.2-1.5,0.2-2.1,0.2
		C305.1,73.3,303.2,71.9,303.2,68.7 M300.2,62.9c-0.6,0-1-0.4-1-1c0-0.6,0.4-1,1-1c0.6,0,1,0.4,1,1
		C301.2,62.4,300.8,62.9,300.2,62.9 M300.9,73.1h-1.4v-8.7h1.4V73.1z M271.6,68.7c0-3.2,1.9-4.6,4.4-4.6c0.6,0,1.5,0.1,2.1,0.3
		l-0.1,1.3c-0.7-0.2-1.5-0.3-2.2-0.3c-1.6,0.1-2.8,1-2.8,3.4c0,2.3,1.2,3.3,2.8,3.4c0.6,0,1.5,0,2.2-0.3l0.1,1.3
		c-0.7,0.2-1.5,0.2-2.1,0.2C273.4,73.3,271.6,71.9,271.6,68.7 M269.6,69.1h-6.4c0.1,2.2,1.3,2.9,2.9,2.8c1,0,2-0.3,2.8-0.6l0,1.3
		c-0.8,0.4-2.1,0.5-2.9,0.5c-2.3,0-4.2-1.4-4.2-4.5c0-2.5,1.3-4.5,4-4.5C268.7,64.2,269.7,66.1,269.6,69.1 M268.2,67.9
		c0-1.7-1-2.6-2.3-2.6c-1.7,0-2.5,1-2.6,2.6H268.2z M253.9,64.3l-3.7,10.5c-0.5,1.4-1.4,2.2-2.7,2.3c-0.4,0-0.8,0-1.2-0.1v-1.3
		c0.4,0.1,0.9,0.2,1.3,0.2c0.7-0.1,1.1-0.6,1.4-1.4l0.5-1.4l-3.6-8.7h1.5l2.7,6.9l2.4-6.9H253.9z M244,73.1h-1.4V60.2h1.4V73.1z
		 M233.7,68.7c0-1.9,0.6-3.3,2.7-3.3c2,0,2.7,1.4,2.7,3.3c0,1.9-0.6,3.3-2.7,3.3C234.3,72,233.7,70.6,233.7,68.7 M240.5,68.7
		c0-2.7-1.4-4.5-4.1-4.5c-2.7,0-4.1,1.8-4.1,4.5c0,2.7,1.4,4.5,4.1,4.5C239.1,73.2,240.5,71.4,240.5,68.7 M231.7,64.4
		c0-2.3-1.7-3.5-3.8-3.5h-4.4v12.2h1.4v-5.2h3C230,67.9,231.7,66.6,231.7,64.4 M224.9,62.1h2.8c1.4,0,2.5,0.6,2.5,2.2
		c0,1.6-1.1,2.2-2.5,2.2h-2.8V62.1z M208.2,76.7l0.1-1.3c1,0.4,2.1,0.7,3.1,0.6c1.6-0.1,2.9-0.8,2.9-3v-0.9
		c-0.3,0.4-1.1,1.2-2.6,1.2c-2.7,0-3.9-2-4-4.4c-0.1-2.3,0.9-4.6,3.5-4.7c1.1,0,2.3,0.3,3.1,1.3l0.1-1.1h1.3v8.6
		c0,2.9-1.8,4.2-4.1,4.3C210.5,77.3,209.2,77.1,208.2,76.7 M214.3,68.8c0-1.8-0.6-3.5-2.7-3.5c-2,0-2.6,1.9-2.5,3.5
		c0.1,1.7,0.8,3.2,2.7,3.2C213.8,72.1,214.3,70.5,214.3,68.8 M174.6,66.6c0-1.8,1.6-2.4,3.3-2.4c0.8,0,1.7,0.1,2.3,0.3l-0.1,1.3
		c-0.5-0.2-1.4-0.4-2.1-0.4c-1,0-1.8,0.4-1.9,1.2c0,0.8,0.8,1.1,1.7,1.4c1.3,0.5,2.8,1,2.8,2.7c0,1.8-1.6,2.5-3.3,2.5
		c-0.8,0-2-0.2-2.7-0.4l0.1-1.4c0.5,0.3,1.8,0.6,2.6,0.6c1,0,1.8-0.3,1.8-1.2c0-1-1-1.2-2.1-1.7C175.8,68.7,174.6,68.2,174.6,66.6
		 M192.4,64.3h1.4V70c0,1.3,0.5,2,1.7,2c1.2,0,2.2-0.7,2.8-1.7v-5.9h1.4v8.7h-1.2l-0.1-1.2c-0.7,0.9-2,1.4-3,1.4
		c-1.5,0-2.8-0.9-2.8-3V64.3z M207,65.6c-0.2-0.1-0.6-0.2-1.1-0.2c-1.6,0-2.1,1.3-2.1,2.6v5.1h-1.4v-8.7h1.1l0.1,1.2
		c0.5-0.8,1.2-1.4,2.3-1.4c0.4,0,0.9,0.1,1.4,0.2L207,65.6z M173.4,65.6c-0.2-0.1-0.6-0.2-1.1-0.2c-1.6,0-2.1,1.3-2.1,2.6v5.1h-1.4
		v-8.7h1.1l0.1,1.2c0.5-0.8,1.2-1.4,2.3-1.4c0.4,0,0.9,0.1,1.4,0.2L173.4,65.6z M157.5,73c-0.6,0.2-1.2,0.2-1.7,0.2
		c-1.5,0-2.3-0.9-2.3-2.5v-5.2H152v-1.2h1.5v-2.1l1.4-0.5v2.6h2.2v1.2h-2.2v5c0,1.1,0.5,1.5,1.2,1.5c0.4,0,0.9-0.1,1.4-0.2L157.5,73
		z M127.3,73c-0.6,0.2-1.2,0.2-1.7,0.2c-1.5,0-2.3-0.9-2.3-2.5v-5.2h-1.5v-1.2h1.5v-2.1l1.4-0.5v2.6h2.2v1.2h-2.2v5
		c0,1.1,0.5,1.5,1.2,1.5c0.4,0,0.9-0.1,1.4-0.2L127.3,73z M184,65.3v-5h-1.4v12.7h1.3l0.1-1.1c0.7,1,1.9,1.3,2.9,1.3
		c2.6-0.1,3.7-2.3,3.7-4.7c0-2.5-1.1-4.4-3.8-4.4C185.2,64.1,184.3,64.9,184,65.3 M183.9,68.6c0-1.6,0.6-3.3,2.7-3.3
		c1.9,0,2.5,1.3,2.6,3.3c0,1.7-0.5,3.5-2.5,3.5C184.5,72.1,183.9,70.4,183.9,68.6 M166.5,69.1h-6.4c0.1,2.2,1.3,2.9,2.9,2.8
		c1,0,2-0.3,2.8-0.6l0,1.3c-0.8,0.4-2.1,0.5-2.9,0.5c-2.3,0-4.2-1.4-4.2-4.5c0-2.5,1.3-4.5,4-4.5C165.5,64.2,166.6,66.1,166.5,69.1
		 M165.1,67.9c0-1.7-1-2.6-2.3-2.6c-1.7,0-2.5,1-2.6,2.6H165.1z M150.9,69.1h-6.4c0.1,2.2,1.3,2.9,2.9,2.8c1,0,2-0.3,2.8-0.6l0,1.3
		c-0.8,0.4-2.1,0.5-2.9,0.5c-2.3,0-4.2-1.4-4.2-4.5c0-2.5,1.3-4.5,4-4.5C149.9,64.2,151,66.1,150.9,69.1 M149.4,67.9
		c0-1.7-1-2.6-2.3-2.6c-1.7,0-2.5,1-2.6,2.6H149.4z M142.2,64.4c0-2.3-1.7-3.5-3.8-3.5H134v12.2h1.4v-5.2h3
		C140.5,67.9,142.2,66.6,142.2,64.4 M135.4,62.1h2.8c1.4,0,2.5,0.6,2.5,2.2c0,1.6-1.1,2.2-2.5,2.2h-2.8V62.1z M129.3,73.1
		c-0.5,0-0.9-0.4-0.9-1c0-0.5,0.4-1,0.9-1c0.5,0,1,0.4,1,1C130.3,72.7,129.9,73.1,129.3,73.1 M171.2,80.4c-0.6,0-1-0.4-1-1
		c0-0.6,0.4-1,1-1c0.6,0,1,0.4,1,1C172.2,80,171.7,80.4,171.2,80.4 M171.9,90.6h-1.4v-8.7h1.4V90.6z M135.5,80.4c-0.6,0-1-0.4-1-1
		c0-0.6,0.4-1,1-1c0.6,0,1,0.4,1,1C136.6,80,136.1,80.4,135.5,80.4 M136.2,90.6h-1.4v-8.7h1.4V90.6z M132.2,90.6h-1.4v-5.7
		c0-1.3-0.5-2-1.7-2c-1.2,0-2.2,0.8-2.8,1.8v5.9H125v-8.7h1.2l0.1,1.2c0.7-0.9,2-1.4,3-1.4c1.5,0,2.8,0.9,2.8,3V90.6z M162.6,84.2
		c0-1.8,1.6-2.4,3.3-2.4c0.8,0,1.7,0.1,2.3,0.3l-0.1,1.3c-0.5-0.2-1.4-0.4-2.1-0.4c-1,0-1.8,0.4-1.9,1.2c0,0.8,0.8,1.1,1.7,1.4
		c1.3,0.5,2.8,1,2.8,2.7c0,1.8-1.6,2.5-3.3,2.5c-0.8,0-2-0.2-2.7-0.4l0.1-1.4c0.5,0.3,1.8,0.6,2.6,0.6c1,0,1.8-0.3,1.8-1.2
		c0-1-1-1.2-2.1-1.7C163.8,86.2,162.6,85.7,162.6,84.2 M161.2,83.1c-0.2-0.1-0.6-0.2-1.1-0.2c-1.6,0-2.1,1.3-2.1,2.6v5.1h-1.4v-8.7
		h1.1l0.1,1.2c0.5-0.8,1.2-1.4,2.3-1.4c0.4,0,0.9,0.1,1.4,0.2L161.2,83.1z M179.6,90.5c-0.6,0.2-1.2,0.3-1.7,0.3
		c-1.5,0-2.3-0.9-2.3-2.5v-5.2h-1.5v-1.2h1.5v-2.1l1.4-0.5v2.6h2.2v1.2H177v5c0,1.1,0.5,1.5,1.2,1.5c0.4,0,0.9-0.1,1.4-0.2
		L179.6,90.5z M188.7,81.9L185,92.4c-0.5,1.4-1.4,2.2-2.7,2.3c-0.4,0-0.8,0-1.2-0.1l0-1.3c0.4,0.1,0.9,0.2,1.3,0.2
		c0.7-0.1,1.1-0.6,1.4-1.4l0.5-1.4l-3.6-8.7h1.5l2.7,6.9l2.4-6.9H188.7z M154.7,86.7h-6.4c0.1,2.2,1.3,2.9,2.9,2.8
		c1,0,2-0.3,2.8-0.6l0,1.3c-0.8,0.4-2.1,0.5-2.9,0.5c-2.3,0-4.2-1.4-4.2-4.5c0-2.5,1.3-4.5,4-4.5C153.8,81.7,154.8,83.6,154.7,86.7
		 M153.3,85.5c0-1.7-1-2.6-2.3-2.6c-1.7,0-2.5,1-2.6,2.6H153.3z M146.3,81.9l-3.5,8.7h-1.4l-3.3-8.7h1.5l2.2,6.3
		c0.2,0.5,0.2,0.7,0.3,1.1h0c0.1-0.4,0.1-0.7,0.3-1.1l2.3-6.4H146.3z M117.9,90.8c-3,0-4.6-1.5-4.6-4.7v-7.7h1.4V86
		c0,2.5,1.1,3.6,3.2,3.6c2.1,0,3.2-1.1,3.2-3.6v-7.6h1.4v7.7C122.5,89.4,120.9,90.8,117.9,90.8"/>
	<path class="st0" d="M279.7,20.2c0-3.3,0.5-6.2,2.4-7.9c1.2-1,3.1-1.5,5-1.5c2.4-0.1,4.9,0.3,6.6,0.7l0.6-5.5
		c-2-0.4-4.7-0.7-6.8-0.7c-4.1,0-7.2,0.9-9.5,2.7c-3.2,2.5-4.7,6.8-4.7,12.1s1.5,9.6,4.7,12.1c2.3,1.8,5.4,2.7,9.5,2.7
		c2.1,0,4.8-0.3,6.8-0.7l-0.6-5.5c-1.7,0.4-4.2,0.8-6.6,0.7c-2-0.1-3.9-0.5-5-1.5C280.2,26.4,279.7,23.5,279.7,20.2 M119.9,11.5h4.3
		c3,0,5.5,0.3,5.5,4.1c0,3.7-2.6,4.1-5.5,4.1h-4.3V11.5z M136.2,15.6c0-7.3-4.5-10-11.2-10h-11.4v29.1h6.4v-9.4h4.8
		C131.4,25.4,136.2,22.9,136.2,15.6 M148.6,20.2c0,4.8,1,9.4,7.1,9.4c6.1,0,7.1-4.6,7.1-9.4c0-4.8-1-9.4-7.1-9.4
		C149.5,10.8,148.6,15.4,148.6,20.2 M142.4,20.2c0-8.2,3.4-15.3,13.3-15.3c9.9,0,13.3,7,13.3,15.3c0,8.3-3.4,15.3-13.3,15.3
		C145.7,35.5,142.4,28.4,142.4,20.2 M177,5.7v29.1h17.4v-5.9h-11.2V5.7H177z M202.9,34.8v-13L192.7,5.7h7.1l6.2,10.3l6.2-10.3h7.1
		l-10.2,16.1v13H202.9z M229.8,34.8V11.5h-8V5.7H244v5.9h-8v23.2H229.8z M255.4,17.2h11.5v5.6h-11.5V29h13.5v5.9h-19.7V5.7h19.7v5.9
		h-13.5V17.2z M299.9,34.8V5.7h6.2v11.6h11.1V5.7h6.2v29.1h-6.2V22.9h-11.1v11.9H299.9z"/>
	<path id="path3801_2_" class="st1" d="M51.6,6.1c-7.5,0-19.7,0.3-26.9,1.2c-9.9,1.2-13.8,6.3-14.8,15.6c-0.8,7.1-1.4,17.4-1.4,27c0,9.6,0.2,20,1.4,27
		c1.6,9.2,5.9,14.1,14.8,15.6c7.1,1.1,20.1,1.2,26.9,1.2c6.7,0,19.8,0,26.9-1.2c8.9-1.4,13.2-6.3,14.8-15.6c1.3-7.1,1.4-17.9,1.4-27
		c0-9.2-0.8-21.3-1.4-27c-1-9.6-5.1-14.3-14.8-15.6C71.3,6.3,59,6.1,51.6,6.1z M81.8,15.9c1.9,0.8,5.2,5.8,4.5,11.2
		c-3.7,3-8.2,5.2-12.5,5.8v34.6h12.9c0,5.3-0.8,9.6-1.7,11.1H61.3V33.5H45v26.9c0,13.6-7.6,20.3-17.4,20.3c-2.7,0-6-0.3-8.8-1.1
		c-1.3-1.8-1.9-7-2.1-13.6c6.5,3.2,15.3,4.6,16-5.6V35.2c-9.9,1.1-13.5,8-16.9,12.6c0.1-6.2,0.4-11.8,0.7-15.5
		c6.8-7.3,14.3-10.7,29.2-10.7H67C72.1,21.6,77.1,19.7,81.8,15.9z"/>
</g>
</svg>
