<?xml version="1.0" encoding="utf-8"?>
<!-- Generator: Adobe Illustrator 16.0.0, SVG Export Plug-In . SVG Version: 6.00 Build 0)  -->
<!DOCTYPE svg PUBLIC "-//W3C//DTD SVG 1.1//EN" "http://www.w3.org/Graphics/SVG/1.1/DTD/svg11.dtd">
<svg version="1.1" id="Layer_1" xmlns="http://www.w3.org/2000/svg" xmlns:xlink="http://www.w3.org/1999/xlink" x="0px" y="0px"
	 width="520px" height="40px" viewBox="0 0 520 40" enable-background="new 0 0 520 40" xml:space="preserve">
<g>
	<g>
		<path fill="#FFFFFF" d="M19.1,10.6c-0.5-0.7-1.3-1.2-2.2-1.5c-0.9-0.3-1.8-0.5-2.6-0.5c-0.5,0-1,0.1-1.5,0.2
			c-0.5,0.1-1,0.3-1.5,0.5c-0.5,0.2-0.8,0.6-1.1,1c-0.3,0.4-0.4,0.9-0.4,1.5c0,0.9,0.3,1.6,1,2.1c0.7,0.5,1.5,0.9,2.6,1.2
			c1,0.3,2.2,0.7,3.3,1c1.2,0.3,2.3,0.8,3.3,1.4c1,0.6,1.9,1.5,2.6,2.5c0.7,1.1,1,2.5,1,4.2c0,1.7-0.3,3.1-0.9,4.4
			c-0.6,1.3-1.5,2.3-2.5,3.1c-1.1,0.8-2.3,1.4-3.7,1.8c-1.4,0.4-2.9,0.6-4.5,0.6c-2,0-3.8-0.3-5.5-0.9c-1.7-0.6-3.2-1.6-4.7-2.9
			l4.7-5.2c0.7,0.9,1.5,1.6,2.6,2.1c1,0.5,2.1,0.7,3.2,0.7c0.5,0,1.1-0.1,1.6-0.2c0.6-0.1,1.1-0.3,1.5-0.6c0.4-0.3,0.8-0.6,1.1-1
			c0.3-0.4,0.4-0.9,0.4-1.4c0-0.9-0.3-1.6-1-2.2c-0.7-0.5-1.6-1-2.6-1.3c-1.1-0.4-2.2-0.7-3.4-1.1c-1.2-0.4-2.4-0.9-3.4-1.5
			c-1.1-0.6-1.9-1.5-2.6-2.5s-1-2.4-1-4.1c0-1.6,0.3-3,1-4.3c0.6-1.2,1.5-2.2,2.6-3.1c1.1-0.8,2.3-1.4,3.7-1.9
			c1.4-0.4,2.8-0.6,4.3-0.6c1.7,0,3.4,0.2,4.9,0.7c1.6,0.5,3,1.3,4.3,2.4L19.1,10.6z"/>
		<path opacity="0.4" fill="#FFFFFF" d="M59.7,34.2v-3.3h21.3v3.3H59.7z"/>
		<path fill="#FFFFFF" d="M118.5,3.2H139v6.1h-13.9V15h13.1v6.1h-13.1v6.1h14.6v6.1h-21.3V3.2z"/>
		<path opacity="0.4" fill="#FFFFFF" d="M205.5,24.6l4.4-7.8h2.9l-5.5,9.6l6.9,7.2h-3.8l-4.5-4.9c-1.2,1.6-2.6,3-4,3.9
			c-1.5,1-3.2,1.5-5.4,1.5c-1.3,0-2.5-0.2-3.6-0.6c-1.1-0.4-2.1-1-2.9-1.8c-0.8-0.8-1.5-1.7-2-2.8c-0.5-1.1-0.7-2.3-0.7-3.6
			c0-1.2,0.2-2.2,0.6-3.1c0.4-0.9,0.9-1.7,1.6-2.3c0.6-0.7,1.4-1.3,2.2-1.9s1.7-1.1,2.6-1.6c-0.4-0.5-0.9-1-1.3-1.6
			c-0.4-0.6-0.8-1.1-1.2-1.7c-0.3-0.6-0.6-1.2-0.9-1.9s-0.3-1.3-0.3-2c0-1.1,0.2-2,0.6-2.9c0.4-0.9,1-1.6,1.7-2.2
			c0.7-0.6,1.5-1,2.4-1.3c0.9-0.3,1.9-0.5,2.9-0.5c0.9,0,1.7,0.2,2.6,0.5c0.8,0.3,1.6,0.7,2.2,1.3c0.6,0.6,1.1,1.2,1.5,2
			c0.4,0.8,0.6,1.7,0.6,2.6c0,1.1-0.2,2-0.6,2.8c-0.4,0.8-0.9,1.5-1.5,2.1c-0.6,0.6-1.4,1.2-2.2,1.7c-0.8,0.5-1.6,1-2.5,1.4
			L205.5,24.6z M195.8,18.3c-0.7,0.4-1.4,0.8-2,1.3c-0.7,0.5-1.3,1-1.8,1.5c-0.6,0.6-1,1.2-1.3,1.9c-0.3,0.7-0.5,1.5-0.5,2.4
			c0,1,0.2,1.8,0.5,2.6c0.4,0.8,0.8,1.4,1.5,2c0.6,0.6,1.3,1,2.2,1.3s1.7,0.4,2.7,0.4c0.8,0,1.5-0.1,2.2-0.4c0.7-0.3,1.3-0.6,1.9-1
			c0.6-0.4,1.2-0.9,1.7-1.5c0.5-0.6,1-1.1,1.4-1.8L195.8,18.3z M197.9,5c-1.3,0-2.4,0.4-3.2,1.2s-1.3,1.8-1.3,3.1
			c0,0.5,0.1,1,0.3,1.6c0.2,0.5,0.5,1.1,0.8,1.6s0.7,1,1.1,1.5c0.4,0.5,0.7,0.9,1,1.2c0.6-0.3,1.2-0.7,1.9-1
			c0.7-0.4,1.3-0.8,1.8-1.3c0.5-0.5,1-1,1.3-1.6c0.4-0.6,0.5-1.3,0.5-2.1c0-1.2-0.4-2.2-1.2-2.9C200.1,5.4,199.1,5,197.9,5z"/>
		<path fill="#FFFFFF" d="M260.4,3.2h6.7v30.2h-6.7V3.2z"/>
		<path opacity="0.4" fill="#FFFFFF" d="M307.7,15.5c0-0.6,0.2-1.1,0.6-1.5s0.9-0.6,1.5-0.6c0.6,0,1.1,0.2,1.4,0.6s0.6,0.9,0.6,1.5
			c0,0.6-0.2,1.1-0.6,1.5c-0.4,0.4-0.9,0.6-1.4,0.6c-0.6,0-1.1-0.2-1.5-0.6C307.9,16.5,307.7,16.1,307.7,15.5z M307.7,31.6
			c0-0.6,0.2-1.1,0.6-1.4c0.4-0.4,0.9-0.6,1.5-0.6c0.6,0,1.1,0.2,1.4,0.6c0.4,0.4,0.6,0.9,0.6,1.4s-0.2,1.1-0.6,1.5
			c-0.4,0.4-0.9,0.6-1.4,0.6c-0.6,0-1.1-0.2-1.5-0.6C307.9,32.7,307.7,32.2,307.7,31.6z"/>
		<path fill="#FFFFFF" d="M352.5,3.2h10.1l7,19.7h0.1l7-19.7h10v30.2h-6.7V10.2h-0.1l-7.9,23.2h-5.1l-7.6-23.2h-0.1v23.2h-6.7V3.2z"
			/>
		<path opacity="0.4" fill="#FFFFFF" d="M429.1,3.2h3.1l-3.3,9.7h-2.5L429.1,3.2z"/>
		<g>
			<path fill="#FFFFFF" d="M481.1,10.6l-6.1,5.4l-3.7-4.2l9.9-8.4h6v30.4h-6.2V10.6z"/>
			<path fill="#FFFFFF" d="M510.9,9.3h-15V3.3h22.3V9l-12.2,24.8h-7.5L510.9,9.3z"/>
		</g>
	</g>
</g>
</svg>
